<svg xmlns="http://www.w3.org/2000/svg" width="1700" height="470">
<rect width="100%" height="100%" fill="#ffffff" />
<defs><marker id="ah" markerWidth="10" markerHeight="7" refX="10" refY="3.5" orient="auto"><polygon points="0 0, 10 3.5, 0 7" fill="#1e1e1e" /></marker></defs>
<text x="340" y="57.5" text-anchor="middle" dominant-baseline="central" font-size="28" font-family="sans-serif" fill="#1e1e1e">CircleTel ISP — Customer Journey</text>
<rect x="40" y="120" width="220" height="80" fill="#a5d8ff" stroke="#1e1e1e" stroke-width="2" rx="8" />
<text x="150" y="160" text-anchor="middle" dominant-baseline="central" font-size="22" font-family="sans-serif" fill="#1e1e1e">Discovery</text>
<line x1="260" y1="160" x2="320" y2="160" stroke="#868e96" stroke-width="2" marker-end="url(#ah)" />
<rect x="50" y="240" width="200" height="40" fill="#ffffff" stroke="#ced4da" stroke-width="2" rx="8" />
<text x="150" y="260" text-anchor="middle" dominant-baseline="central" font-size="16" font-family="sans-serif" fill="#1e1e1e">Marketing landing page</text>
<rect x="50" y="290" width="200" height="40" fill="#ffffff" stroke="#ced4da" stroke-width="2" rx="8" />
<text x="150" y="310" text-anchor="middle" dominant-baseline="central" font-size="16" font-family="sans-serif" fill="#1e1e1e">Coverage check tool</text>
<rect x="50" y="340" width="200" height="40" fill="#ffffff" stroke="#ced4da" stroke-width="2" rx="8" />
<text x="150" y="360" text-anchor="middle" dominant-baseline="central" font-size="16" font-family="sans-serif" fill="#1e1e1e">5G deals / packages page</text>
<rect x="50" y="390" width="200" height="40" fill="#ffffff" stroke="#ced4da" stroke-width="2" rx="8" />
<text x="150" y="410" text-anchor="middle" dominant-baseline="central" font-size="16" font-family="sans-serif" fill="#1e1e1e">Location-based SEO pages</text>
<rect x="320" y="120" width="220" height="80" fill="#b2f2bb" stroke="#1e1e1e" stroke-width="2" rx="8" />
<text x="430" y="160" text-anchor="middle" dominant-baseline="central" font-size="22" font-family="sans-serif" fill="#1e1e1e">Evaluation</text>
<line x1="540" y1="160" x2="600" y2="160" stroke="#868e96" stroke-width="2" marker-end="url(#ah)" />
<rect x="330" y="240" width="200" height="40" fill="#ffffff" stroke="#ced4da" stroke-width="2" rx="8" />
<text x="430" y="260" text-anchor="middle" dominant-baseline="central" font-size="16" font-family="sans-serif" fill="#1e1e1e">Pricing &amp; bundles comparison</text>
<rect x="330" y="290" width="200" height="40" fill="#ffffff" stroke="#ced4da" stroke-width="2" rx="8" />
<text x="430" y="310" text-anchor="middle" dominant-baseline="central" font-size="16" font-family="sans-serif" fill="#1e1e1e">Business vs consumer packages</text>
<rect x="330" y="340" width="200" height="40" fill="#ffffff" stroke="#ced4da" stroke-width="2" rx="8" />
<text x="430" y="360" text-anchor="middle" dominant-baseline="central" font-size="16" font-family="sans-serif" fill="#1e1e1e">Quote request (B2B)</text>
<rect x="330" y="390" width="200" height="40" fill="#ffffff" stroke="#ced4da" stroke-width="2" rx="8" />
<text x="430" y="410" text-anchor="middle" dominant-baseline="central" font-size="16" font-family="sans-serif" fill="#1e1e1e">FAQ &amp; connectivity guide</text>
<rect x="600" y="120" width="220" height="80" fill="#ffec99" stroke="#1e1e1e" stroke-width="2" rx="8" />
<text x="710" y="160" text-anchor="middle" dominant-baseline="central" font-size="22" font-family="sans-serif" fill="#1e1e1e">Purchase</text>
<line x1="820" y1="160" x2="880" y2="160" stroke="#868e96" stroke-width="2" marker-end="url(#ah)" />
<rect x="610" y="240" width="200" height="40" fill="#ffffff" stroke="#ced4da" stroke-width="2" rx="8" />
<text x="710" y="260" text-anchor="middle" dominant-baseline="central" font-size="16" font-family="sans-serif" fill="#1e1e1e">Order flow (coverage → package → payment)</text>
<rect x="610" y="290" width="200" height="40" fill="#ffffff" stroke="#ced4da" stroke-width="2" rx="8" />
<text x="710" y="310" text-anchor="middle" dominant-baseline="central" font-size="16" font-family="sans-serif" fill="#1e1e1e">OTP / email verification</text>
<rect x="610" y="340" width="200" height="40" fill="#ffffff" stroke="#ced4da" stroke-width="2" rx="8" />
<text x="710" y="360" text-anchor="middle" dominant-baseline="central" font-size="16" font-family="sans-serif" fill="#1e1e1e">KYC document upload</text>
<rect x="610" y="390" width="200" height="40" fill="#ffffff" stroke="#ced4da" stroke-width="2" rx="8" />
<text x="710" y="410" text-anchor="middle" dominant-baseline="central" font-size="16" font-family="sans-serif" fill="#1e1e1e">Installation scheduling</text>
<rect x="880" y="120" width="220" height="80" fill="#ffc9c9" stroke="#1e1e1e" stroke-width="2" rx="8" />
<text x="990" y="160" text-anchor="middle" dominant-baseline="central" font-size="22" font-family="sans-serif" fill="#1e1e1e">Onboarding</text>
<line x1="1100" y1="160" x2="1160" y2="160" stroke="#868e96" stroke-width="2" marker-end="url(#ah)" />
<rect x="890" y="240" width="200" height="40" fill="#ffffff" stroke="#ced4da" stroke-width="2" rx="8" />
<text x="990" y="260" text-anchor="middle" dominant-baseline="central" font-size="16" font-family="sans-serif" fill="#1e1e1e">Service activated email</text>
<rect x="890" y="290" width="200" height="40" fill="#ffffff" stroke="#ced4da" stroke-width="2" rx="8" />
<text x="990" y="310" text-anchor="middle" dominant-baseline="central" font-size="16" font-family="sans-serif" fill="#1e1e1e">Customer dashboard access</text>
<rect x="890" y="340" width="200" height="40" fill="#ffffff" stroke="#ced4da" stroke-width="2" rx="8" />
<text x="990" y="360" text-anchor="middle" dominant-baseline="central" font-size="16" font-family="sans-serif" fill="#1e1e1e">WhatsApp opt-in</text>
<rect x="890" y="390" width="200" height="40" fill="#ffffff" stroke="#ced4da" stroke-width="2" rx="8" />
<text x="990" y="410" text-anchor="middle" dominant-baseline="central" font-size="16" font-family="sans-serif" fill="#1e1e1e">Technician installation job</text>
<rect x="1160" y="120" width="220" height="80" fill="#ffc9c9" stroke="#1e1e1e" stroke-width="2" rx="8" />
<text x="1270" y="160" text-anchor="middle" dominant-baseline="central" font-size="22" font-family="sans-serif" fill="#1e1e1e">Active Customer</text>
<line x1="1380" y1="160" x2="1440" y2="160" stroke="#868e96" stroke-width="2" marker-end="url(#ah)" />
<rect x="1170" y="240" width="200" height="40" fill="#ffffff" stroke="#ced4da" stroke-width="2" rx="8" />
<text x="1270" y="260" text-anchor="middle" dominant-baseline="central" font-size="16" font-family="sans-serif" fill="#1e1e1e">Usage monitoring dashboard</text>
<rect x="1170" y="290" width="200" height="40" fill="#ffffff" stroke="#ced4da" stroke-width="2" rx="8" />
<text x="1270" y="310" text-anchor="middle" dominant-baseline="central" font-size="16" font-family="sans-serif" fill="#1e1e1e">Invoice &amp; billing management</text>
<rect x="1170" y="340" width="200" height="40" fill="#ffffff" stroke="#ced4da" stroke-width="2" rx="8" />
<text x="1270" y="360" text-anchor="middle" dominant-baseline="central" font-size="16" font-family="sans-serif" fill="#1e1e1e">Support tickets system</text>
<rect x="1170" y="390" width="200" height="40" fill="#ffffff" stroke="#ced4da" stroke-width="2" rx="8" />
<text x="1270" y="410" text-anchor="middle" dominant-baseline="central" font-size="16" font-family="sans-serif" fill="#1e1e1e">Service upgrade/downgrade</text>
<rect x="1440" y="120" width="220" height="80" fill="#d0bfff" stroke="#1e1e1e" stroke-width="2" rx="8" />
<text x="1550" y="160" text-anchor="middle" dominant-baseline="central" font-size="22" font-family="sans-serif" fill="#1e1e1e">Advocacy</text>
<rect x="1450" y="240" width="200" height="40" fill="#ffffff" stroke="#ced4da" stroke-width="2" rx="8" />
<text x="1550" y="260" text-anchor="middle" dominant-baseline="central" font-size="16" font-family="sans-serif" fill="#1e1e1e">Ambassador program (codes &amp; earnings)</text>
<rect x="1450" y="290" width="200" height="40" fill="#ffffff" stroke="#ced4da" stroke-width="2" rx="8" />
<text x="1550" y="310" text-anchor="middle" dominant-baseline="central" font-size="16" font-family="sans-serif" fill="#1e1e1e">Partner referral portal</text>
<rect x="1450" y="340" width="200" height="40" fill="#ffffff" stroke="#ced4da" stroke-width="2" rx="8" />
<text x="1550" y="360" text-anchor="middle" dominant-baseline="central" font-size="16" font-family="sans-serif" fill="#1e1e1e">Become-a-partner signup</text>
<rect x="1450" y="390" width="200" height="40" fill="#ffffff" stroke="#ced4da" stroke-width="2" rx="8" />
<text x="1550" y="410" text-anchor="middle" dominant-baseline="central" font-size="16" font-family="sans-serif" fill="#1e1e1e">Marketing asset sharing</text>
</svg>