<svg xmlns="http://www.w3.org/2000/svg" width="1000" height="935">
<rect width="100%" height="100%" fill="#ffffff" />
<defs><marker id="ah" markerWidth="10" markerHeight="7" refX="10" refY="3.5" orient="auto"><polygon points="0 0, 10 3.5, 0 7" fill="#1e1e1e" /></marker></defs>
<text x="340" y="55" text-anchor="middle" dominant-baseline="central" font-size="28" font-family="sans-serif" fill="#1e1e1e">CircleTel — Order Flow (Coverage → Package → Payment)</text>
<text x="340" y="110" text-anchor="middle" dominant-baseline="central" font-size="14" font-family="sans-serif" fill="#1e1e1e">Entry Points</text>
<rect x="40" y="120" width="200" height="55" fill="#a5d8ff" stroke="#868e96" stroke-width="2" rx="8" />
<text x="140" y="147.5" text-anchor="middle" dominant-baseline="central" font-size="16" font-family="sans-serif" fill="#1e1e1e">Homepage
Coverage Check</text>
<rect x="280" y="120" width="200" height="55" fill="#a5d8ff" stroke="#868e96" stroke-width="2" rx="8" />
<text x="380" y="147.5" text-anchor="middle" dominant-baseline="central" font-size="16" font-family="sans-serif" fill="#1e1e1e">5G Deals /
Packages Page</text>
<rect x="520" y="120" width="200" height="55" fill="#a5d8ff" stroke="#868e96" stroke-width="2" rx="8" />
<text x="620" y="147.5" text-anchor="middle" dominant-baseline="central" font-size="16" font-family="sans-serif" fill="#1e1e1e">Location SEO
/locations/[town]</text>
<rect x="760" y="120" width="200" height="55" fill="#a5d8ff" stroke="#868e96" stroke-width="2" rx="8" />
<text x="860" y="147.5" text-anchor="middle" dominant-baseline="central" font-size="16" font-family="sans-serif" fill="#1e1e1e">Partner
Referral Link</text>
<text x="340" y="230" text-anchor="middle" dominant-baseline="central" font-size="14" font-family="sans-serif" fill="#1e1e1e">Step 1 — Coverage</text>
<polygon points="440,235 540,290 440,345 340,290" fill="#ffec99" stroke="#1e1e1e" stroke-width="2" />
<text x="440" y="290" text-anchor="middle" dominant-baseline="central" font-size="14" font-family="sans-serif" fill="#1e1e1e">Coverage
Available?</text>
<line x1="140" y1="175" x2="380" y2="235" stroke="#4dabf7" stroke-width="2" marker-end="url(#ah)" />
<line x1="380" y1="175" x2="420" y2="235" stroke="#4dabf7" stroke-width="2" marker-end="url(#ah)" />
<line x1="620" y1="175" x2="460" y2="235" stroke="#4dabf7" stroke-width="2" marker-end="url(#ah)" />
<line x1="860" y1="175" x2="500" y2="235" stroke="#4dabf7" stroke-width="2" marker-end="url(#ah)" />
<rect x="760" y="250" width="200" height="55" fill="#ffc9c9" stroke="#868e96" stroke-width="2" rx="8" />
<text x="860" y="277.5" text-anchor="middle" dominant-baseline="central" font-size="16" font-family="sans-serif" fill="#1e1e1e">No Coverage Lead
Capture &amp; Notify</text>
<line x1="540" y1="290" x2="760" y2="277.5" stroke="#fa5252" stroke-width="2" marker-end="url(#ah)" />
<text x="650" y="275.75" text-anchor="middle" dominant-baseline="central" font-size="12" font-family="sans-serif" fill="#868e96">No</text>
<text x="340" y="390" text-anchor="middle" dominant-baseline="central" font-size="14" font-family="sans-serif" fill="#1e1e1e">Step 2 — Choose Plan  /packages</text>
<rect x="100" y="400" width="180" height="55" fill="#ffffff" stroke="#868e96" stroke-width="2" rx="8" />
<text x="190" y="427.5" text-anchor="middle" dominant-baseline="central" font-size="16" font-family="sans-serif" fill="#1e1e1e">Fibre Packages
(by provider)</text>
<rect x="320" y="400" width="180" height="55" fill="#ffffff" stroke="#868e96" stroke-width="2" rx="8" />
<text x="410" y="427.5" text-anchor="middle" dominant-baseline="central" font-size="16" font-family="sans-serif" fill="#1e1e1e">5G / LTE / SkyFibre
Wireless Packages</text>
<rect x="540" y="400" width="180" height="55" fill="#fff3bf" stroke="#868e96" stroke-width="2" rx="8" />
<text x="630" y="427.5" text-anchor="middle" dominant-baseline="central" font-size="16" font-family="sans-serif" fill="#1e1e1e">MTN Mobile
Deals</text>
<line x1="440" y1="345" x2="230" y2="400" stroke="#40c057" stroke-width="2" marker-end="url(#ah)" />
<text x="335" y="364.5" text-anchor="middle" dominant-baseline="central" font-size="12" font-family="sans-serif" fill="#868e96">Yes</text>
<text x="340" y="510" text-anchor="middle" dominant-baseline="central" font-size="14" font-family="sans-serif" fill="#1e1e1e">Step 3 — Sign In  /order/checkout</text>
<polygon points="330,515 420,565 330,615 240,565" fill="#ffec99" stroke="#1e1e1e" stroke-width="2" />
<text x="330" y="565" text-anchor="middle" dominant-baseline="central" font-size="14" font-family="sans-serif" fill="#1e1e1e">Existing
Customer?</text>
<rect x="500" y="520" width="180" height="55" fill="#d0bfff" stroke="#868e96" stroke-width="2" rx="8" />
<text x="590" y="547.5" text-anchor="middle" dominant-baseline="central" font-size="16" font-family="sans-serif" fill="#1e1e1e">Phone OTP Sign In
/order/verify-otp</text>
<rect x="500" y="595" width="180" height="55" fill="#d0bfff" stroke="#868e96" stroke-width="2" rx="8" />
<text x="590" y="622.5" text-anchor="middle" dominant-baseline="central" font-size="16" font-family="sans-serif" fill="#1e1e1e">New Account
(phone + email)</text>
<rect x="720" y="555" width="160" height="45" fill="#d0bfff" stroke="#868e96" stroke-width="2" rx="8" />
<text x="800" y="577.5" text-anchor="middle" dominant-baseline="central" font-size="16" font-family="sans-serif" fill="#1e1e1e">Google OAuth</text>
<line x1="190" y1="455" x2="330" y2="515" stroke="#868e96" stroke-width="2" marker-end="url(#ah)" />
<line x1="410" y1="455" x2="360" y2="515" stroke="#868e96" stroke-width="2" marker-end="url(#ah)" />
<line x1="420" y1="550" x2="500" y2="547.5" stroke="#7950f2" stroke-width="2" marker-end="url(#ah)" />
<text x="460" y="540.75" text-anchor="middle" dominant-baseline="central" font-size="12" font-family="sans-serif" fill="#868e96">Yes</text>
<line x1="420" y1="580" x2="500" y2="622.5" stroke="#7950f2" stroke-width="2" marker-end="url(#ah)" />
<text x="460" y="593.25" text-anchor="middle" dominant-baseline="central" font-size="12" font-family="sans-serif" fill="#868e96">No</text>
<line x1="680" y1="557.5" x2="720" y2="577.5" stroke="#868e96" stroke-width="2" marker-end="url(#ah)" />
<rect x="720" y="615" width="160" height="45" fill="#fff3bf" stroke="#868e96" stroke-width="2" rx="8" />
<text x="800" y="637.5" text-anchor="middle" dominant-baseline="central" font-size="16" font-family="sans-serif" fill="#1e1e1e">Verify Email
/order/verify-email</text>
<line x1="680" y1="622.5" x2="720" y2="637.5" stroke="#868e96" stroke-width="2" marker-end="url(#ah)" />
<text x="340" y="710" text-anchor="middle" dominant-baseline="central" font-size="14" font-family="sans-serif" fill="#1e1e1e">Step 4 — Confirm &amp; Pay  /order/checkout</text>
<rect x="80" y="720" width="190" height="55" fill="#ffffff" stroke="#868e96" stroke-width="2" rx="8" />
<text x="175" y="747.5" text-anchor="middle" dominant-baseline="central" font-size="16" font-family="sans-serif" fill="#1e1e1e">Service Address
Confirmation</text>
<rect x="310" y="720" width="190" height="55" fill="#ffffff" stroke="#868e96" stroke-width="2" rx="8" />
<text x="405" y="747.5" text-anchor="middle" dominant-baseline="central" font-size="16" font-family="sans-serif" fill="#1e1e1e">Order Summary
&amp; T&amp;Cs</text>
<rect x="540" y="720" width="190" height="55" fill="#ffffff" stroke="#868e96" stroke-width="2" rx="8" />
<text x="635" y="747.5" text-anchor="middle" dominant-baseline="central" font-size="16" font-family="sans-serif" fill="#1e1e1e">Payment
(Ozow / Card)</text>
<line x1="560" y1="615" x2="175" y2="720" stroke="#868e96" stroke-width="2" marker-end="url(#ah)" />
<line x1="270" y1="747.5" x2="310" y2="747.5" stroke="#868e96" stroke-width="2" marker-end="url(#ah)" />
<line x1="500" y1="747.5" x2="540" y2="747.5" stroke="#868e96" stroke-width="2" marker-end="url(#ah)" />
<text x="340" y="830" text-anchor="middle" dominant-baseline="central" font-size="14" font-family="sans-serif" fill="#1e1e1e">Step 5 — Confirmation &amp; Onboarding</text>
<rect x="140" y="840" width="200" height="55" fill="#b2f2bb" stroke="#868e96" stroke-width="2" rx="8" />
<text x="240" y="867.5" text-anchor="middle" dominant-baseline="central" font-size="16" font-family="sans-serif" fill="#1e1e1e">Order Confirmed
/order/confirmation</text>
<rect x="390" y="840" width="200" height="55" fill="#b2f2bb" stroke="#868e96" stroke-width="2" rx="8" />
<text x="490" y="867.5" text-anchor="middle" dominant-baseline="central" font-size="16" font-family="sans-serif" fill="#1e1e1e">Installation
Scheduled</text>
<rect x="640" y="840" width="200" height="55" fill="#b2f2bb" stroke="#868e96" stroke-width="2" rx="8" />
<text x="740" y="867.5" text-anchor="middle" dominant-baseline="central" font-size="16" font-family="sans-serif" fill="#1e1e1e">Customer Dashboard
/dashboard</text>
<line x1="635" y1="775" x2="240" y2="840" stroke="#40c057" stroke-width="2" marker-end="url(#ah)" />
<line x1="340" y1="867.5" x2="390" y2="867.5" stroke="#40c057" stroke-width="2" marker-end="url(#ah)" />
<line x1="590" y1="867.5" x2="640" y2="867.5" stroke="#40c057" stroke-width="2" marker-end="url(#ah)" />
<rect x="760" y="480" width="180" height="55" fill="#fff3bf" stroke="#868e96" stroke-width="2" rx="8" />
<text x="850" y="507.5" text-anchor="middle" dominant-baseline="central" font-size="16" font-family="sans-serif" fill="#1e1e1e">Mobile Deal Flow
(4 steps)</text>
<line x1="630" y1="455" x2="850" y2="480" stroke="#e8590c" stroke-width="2" marker-end="url(#ah)" />
</svg>