<svg width="148" height="60" viewBox="0 0 148 60" fill="none" xmlns="http://www.w3.org/2000/svg">
<path d="M10.5563 5.90666C11.08 3.20283 13.4473 1.25 16.2014 1.25H112.968C116.154 1.25 118.733 3.84026 118.718 7.02604L118.514 52.026C118.5 55.1915 115.93 57.75 112.764 57.75H7.48583C3.87158 57.75 1.15351 54.455 1.84074 50.9067L10.5563 5.90666Z" fill="#CFDFF4" stroke="#1E4B85" stroke-width="2.5"/>
<path d="M39.5488 40.0499V17.6499H45.3408V35.0579H52.9248V40.0499H39.5488ZM56.7675 40.0499V22.6419H51.3275V17.6499H68.0315V22.6419H62.5915V40.0499H56.7675ZM70.7363 40.0499V17.6499H84.6243V22.6419H76.5283V26.5459H83.9843V31.2179H76.5283V35.0579H84.9443V40.0499H70.7363Z" fill="#1E4B85"/>
</svg>
