<?xml version="1.0" encoding="UTF-8"?>
<svg id="Layer_1" data-name="Layer 1" xmlns="http://www.w3.org/2000/svg" viewBox="0 0 500 500">
  <defs>
    <style>
      .cls-1 {
        fill: #231f20;
      }

      .cls-2 {
        fill: #f2f2f2;
      }
    </style>
  </defs>
  <rect class="cls-2" y="0" width="500" height="500" rx="50" ry="50"/>
  <g>
    <rect class="cls-1" x="208.1" y="100.37" width="11.97" height="11.97"/>
    <rect class="cls-1" x="232.04" y="100.37" width="11.97" height="11.97"/>
    <rect class="cls-1" x="244.01" y="100.37" width="11.97" height="11.97"/>
    <rect class="cls-1" x="255.99" y="100.37" width="11.97" height="11.97"/>
    <rect class="cls-1" x="291.9" y="100.37" width="11.97" height="11.97"/>
    <rect class="cls-1" x="208.1" y="112.34" width="11.97" height="11.97"/>
    <rect class="cls-1" x="220.07" y="112.34" width="11.97" height="11.97"/>
    <rect class="cls-1" x="232.04" y="112.34" width="11.97" height="11.97"/>
    <rect class="cls-1" x="255.99" y="112.34" width="11.97" height="11.97"/>
    <rect class="cls-1" x="267.96" y="112.34" width="11.97" height="11.97"/>
    <rect class="cls-1" x="279.93" y="112.34" width="11.97" height="11.97"/>
    <rect class="cls-1" x="291.9" y="112.34" width="11.97" height="11.97"/>
    <rect class="cls-1" x="196.13" y="124.31" width="11.97" height="11.97"/>
    <rect class="cls-1" x="220.07" y="124.31" width="11.97" height="11.97"/>
    <rect class="cls-1" x="267.96" y="124.31" width="11.97" height="11.97"/>
    <rect class="cls-1" x="196.13" y="136.28" width="11.97" height="11.97"/>
    <rect class="cls-1" x="208.1" y="136.28" width="11.97" height="11.97"/>
    <rect class="cls-1" x="232.04" y="136.28" width="11.97" height="11.97"/>
    <rect class="cls-1" x="244.01" y="136.28" width="11.97" height="11.97"/>
    <rect class="cls-1" x="255.99" y="136.28" width="11.97" height="11.97"/>
    <rect class="cls-1" x="279.93" y="136.28" width="11.97" height="11.97"/>
    <rect class="cls-1" x="196.13" y="148.25" width="11.97" height="11.97"/>
    <rect class="cls-1" x="208.1" y="148.25" width="11.97" height="11.97"/>
    <rect class="cls-1" x="255.99" y="148.25" width="11.97" height="11.97"/>
    <rect class="cls-1" x="291.9" y="148.25" width="11.97" height="11.97"/>
    <rect class="cls-1" x="196.13" y="160.22" width="11.97" height="11.97"/>
    <rect class="cls-1" x="208.1" y="160.22" width="11.97" height="11.97"/>
    <rect class="cls-1" x="244.01" y="160.22" width="11.97" height="11.97"/>
    <rect class="cls-1" x="255.99" y="160.22" width="11.97" height="11.97"/>
    <rect class="cls-1" x="267.96" y="160.22" width="11.97" height="11.97"/>
    <rect class="cls-1" x="279.93" y="160.22" width="11.97" height="11.97"/>
    <rect class="cls-1" x="196.13" y="172.19" width="11.97" height="11.97"/>
    <rect class="cls-1" x="220.07" y="172.19" width="11.97" height="11.97"/>
    <rect class="cls-1" x="244.01" y="172.19" width="11.97" height="11.97"/>
    <rect class="cls-1" x="267.96" y="172.19" width="11.97" height="11.97"/>
    <rect class="cls-1" x="291.9" y="172.19" width="11.97" height="11.97"/>
    <rect class="cls-1" x="196.13" y="184.16" width="11.97" height="11.97"/>
    <rect class="cls-1" x="220.07" y="184.16" width="11.97" height="11.97"/>
    <rect class="cls-1" x="291.9" y="184.16" width="11.97" height="11.97"/>
    <rect class="cls-1" x="100.37" y="196.13" width="11.97" height="11.97"/>
    <rect class="cls-1" x="124.31" y="196.13" width="11.97" height="11.97"/>
    <rect class="cls-1" x="136.28" y="196.13" width="11.97" height="11.97"/>
    <rect class="cls-1" x="148.25" y="196.13" width="11.97" height="11.97"/>
    <rect class="cls-1" x="160.22" y="196.13" width="11.97" height="11.97"/>
    <rect class="cls-1" x="172.19" y="196.13" width="11.97" height="11.97"/>
    <rect class="cls-1" x="208.1" y="196.13" width="11.97" height="11.97"/>
    <rect class="cls-1" x="255.99" y="196.13" width="11.97" height="11.97"/>
    <rect class="cls-1" x="267.96" y="196.13" width="11.97" height="11.97"/>
    <rect class="cls-1" x="315.84" y="196.13" width="11.97" height="11.97"/>
    <rect class="cls-1" x="327.81" y="196.13" width="11.97" height="11.97"/>
    <rect class="cls-1" x="339.78" y="196.13" width="11.97" height="11.97"/>
    <rect class="cls-1" x="351.75" y="196.13" width="11.97" height="11.97"/>
    <rect class="cls-1" x="363.72" y="196.13" width="11.97" height="11.97"/>
    <rect class="cls-1" x="100.37" y="208.1" width="11.97" height="11.97"/>
    <rect class="cls-1" x="196.13" y="208.1" width="11.97" height="11.97"/>
    <rect class="cls-1" x="220.07" y="208.1" width="11.97" height="11.97"/>
    <rect class="cls-1" x="232.04" y="208.1" width="11.97" height="11.97"/>
    <rect class="cls-1" x="255.99" y="208.1" width="11.97" height="11.97"/>
    <rect class="cls-1" x="267.96" y="208.1" width="11.97" height="11.97"/>
    <rect class="cls-1" x="327.81" y="208.1" width="11.97" height="11.97"/>
    <rect class="cls-1" x="375.69" y="208.1" width="11.97" height="11.97"/>
    <rect class="cls-1" x="124.31" y="220.07" width="11.97" height="11.97"/>
    <rect class="cls-1" x="160.22" y="220.07" width="11.97" height="11.97"/>
    <rect class="cls-1" x="172.19" y="220.07" width="11.97" height="11.97"/>
    <rect class="cls-1" x="244.01" y="220.07" width="11.97" height="11.97"/>
    <rect class="cls-1" x="255.99" y="220.07" width="11.97" height="11.97"/>
    <rect class="cls-1" x="279.93" y="220.07" width="11.97" height="11.97"/>
    <rect class="cls-1" x="303.87" y="220.07" width="11.97" height="11.97"/>
    <rect class="cls-1" x="315.84" y="220.07" width="11.97" height="11.97"/>
    <rect class="cls-1" x="339.78" y="220.07" width="11.97" height="11.97"/>
    <rect class="cls-1" x="351.75" y="220.07" width="11.97" height="11.97"/>
    <rect class="cls-1" x="375.69" y="220.07" width="11.97" height="11.97"/>
    <rect class="cls-1" x="387.66" y="220.07" width="11.97" height="11.97"/>
    <rect class="cls-1" x="100.37" y="232.04" width="11.97" height="11.97"/>
    <rect class="cls-1" x="112.34" y="232.04" width="11.97" height="11.97"/>
    <rect class="cls-1" x="136.28" y="232.04" width="11.97" height="11.97"/>
    <rect class="cls-1" x="148.25" y="232.04" width="11.97" height="11.97"/>
    <rect class="cls-1" x="184.16" y="232.04" width="11.97" height="11.97"/>
    <rect class="cls-1" x="196.13" y="232.04" width="11.97" height="11.97"/>
    <rect class="cls-1" x="208.1" y="232.04" width="11.97" height="11.97"/>
    <rect class="cls-1" x="220.07" y="232.04" width="11.97" height="11.97"/>
    <rect class="cls-1" x="232.04" y="232.04" width="11.97" height="11.97"/>
    <rect class="cls-1" x="244.01" y="232.04" width="11.97" height="11.97"/>
    <rect class="cls-1" x="279.93" y="232.04" width="11.97" height="11.97"/>
    <rect class="cls-1" x="303.87" y="232.04" width="11.97" height="11.97"/>
    <rect class="cls-1" x="315.84" y="232.04" width="11.97" height="11.97"/>
    <rect class="cls-1" x="327.81" y="232.04" width="11.97" height="11.97"/>
    <rect class="cls-1" x="339.78" y="232.04" width="11.97" height="11.97"/>
    <rect class="cls-1" x="387.66" y="232.04" width="11.97" height="11.97"/>
    <rect class="cls-1" x="124.31" y="244.01" width="11.97" height="11.97"/>
    <rect class="cls-1" x="136.28" y="244.01" width="11.97" height="11.97"/>
    <rect class="cls-1" x="172.19" y="244.01" width="11.97" height="11.97"/>
    <rect class="cls-1" x="208.1" y="244.01" width="11.97" height="11.97"/>
    <rect class="cls-1" x="255.99" y="244.01" width="11.97" height="11.97"/>
    <rect class="cls-1" x="267.96" y="244.01" width="11.97" height="11.97"/>
    <rect class="cls-1" x="303.87" y="244.01" width="11.97" height="11.97"/>
    <rect class="cls-1" x="315.84" y="244.01" width="11.97" height="11.97"/>
    <rect class="cls-1" x="339.78" y="244.01" width="11.97" height="11.97"/>
    <rect class="cls-1" x="363.72" y="244.01" width="11.97" height="11.97"/>
    <rect class="cls-1" x="375.69" y="244.01" width="11.97" height="11.97"/>
    <rect class="cls-1" x="387.66" y="244.01" width="11.97" height="11.97"/>
    <rect class="cls-1" x="100.37" y="255.99" width="11.97" height="11.97"/>
    <rect class="cls-1" x="124.31" y="255.99" width="11.97" height="11.97"/>
    <rect class="cls-1" x="136.28" y="255.99" width="11.97" height="11.97"/>
    <rect class="cls-1" x="148.25" y="255.99" width="11.97" height="11.97"/>
    <rect class="cls-1" x="160.22" y="255.99" width="11.97" height="11.97"/>
    <rect class="cls-1" x="184.16" y="255.99" width="11.97" height="11.97"/>
    <rect class="cls-1" x="244.01" y="255.99" width="11.97" height="11.97"/>
    <rect class="cls-1" x="291.9" y="255.99" width="11.97" height="11.97"/>
    <rect class="cls-1" x="303.87" y="255.99" width="11.97" height="11.97"/>
    <rect class="cls-1" x="327.81" y="255.99" width="11.97" height="11.97"/>
    <rect class="cls-1" x="351.75" y="255.99" width="11.97" height="11.97"/>
    <rect class="cls-1" x="375.69" y="255.99" width="11.97" height="11.97"/>
    <rect class="cls-1" x="100.37" y="267.96" width="11.97" height="11.97"/>
    <rect class="cls-1" x="124.31" y="267.96" width="11.97" height="11.97"/>
    <rect class="cls-1" x="136.28" y="267.96" width="11.97" height="11.97"/>
    <rect class="cls-1" x="160.22" y="267.96" width="11.97" height="11.97"/>
    <rect class="cls-1" x="172.19" y="267.96" width="11.97" height="11.97"/>
    <rect class="cls-1" x="196.13" y="267.96" width="11.97" height="11.97"/>
    <rect class="cls-1" x="208.1" y="267.96" width="11.97" height="11.97"/>
    <rect class="cls-1" x="220.07" y="267.96" width="11.97" height="11.97"/>
    <rect class="cls-1" x="279.93" y="267.96" width="11.97" height="11.97"/>
    <rect class="cls-1" x="291.9" y="267.96" width="11.97" height="11.97"/>
    <rect class="cls-1" x="303.87" y="267.96" width="11.97" height="11.97"/>
    <rect class="cls-1" x="315.84" y="267.96" width="11.97" height="11.97"/>
    <rect class="cls-1" x="327.81" y="267.96" width="11.97" height="11.97"/>
    <rect class="cls-1" x="339.78" y="267.96" width="11.97" height="11.97"/>
    <rect class="cls-1" x="351.75" y="267.96" width="11.97" height="11.97"/>
    <rect class="cls-1" x="375.69" y="267.96" width="11.97" height="11.97"/>
    <rect class="cls-1" x="387.66" y="267.96" width="11.97" height="11.97"/>
    <rect class="cls-1" x="100.37" y="279.93" width="11.97" height="11.97"/>
    <rect class="cls-1" x="124.31" y="279.93" width="11.97" height="11.97"/>
    <rect class="cls-1" x="148.25" y="279.93" width="11.97" height="11.97"/>
    <rect class="cls-1" x="196.13" y="279.93" width="11.97" height="11.97"/>
    <rect class="cls-1" x="220.07" y="279.93" width="11.97" height="11.97"/>
    <rect class="cls-1" x="244.01" y="279.93" width="11.97" height="11.97"/>
    <rect class="cls-1" x="267.96" y="279.93" width="11.97" height="11.97"/>
    <rect class="cls-1" x="315.84" y="279.93" width="11.97" height="11.97"/>
    <rect class="cls-1" x="327.81" y="279.93" width="11.97" height="11.97"/>
    <rect class="cls-1" x="339.78" y="279.93" width="11.97" height="11.97"/>
    <rect class="cls-1" x="387.66" y="279.93" width="11.97" height="11.97"/>
    <rect class="cls-1" x="100.37" y="291.9" width="11.97" height="11.97"/>
    <rect class="cls-1" x="136.28" y="291.9" width="11.97" height="11.97"/>
    <rect class="cls-1" x="148.25" y="291.9" width="11.97" height="11.97"/>
    <rect class="cls-1" x="160.22" y="291.9" width="11.97" height="11.97"/>
    <rect class="cls-1" x="172.19" y="291.9" width="11.97" height="11.97"/>
    <rect class="cls-1" x="220.07" y="291.9" width="11.97" height="11.97"/>
    <rect class="cls-1" x="244.01" y="291.9" width="11.97" height="11.97"/>
    <rect class="cls-1" x="255.99" y="291.9" width="11.97" height="11.97"/>
    <rect class="cls-1" x="279.93" y="291.9" width="11.97" height="11.97"/>
    <rect class="cls-1" x="291.9" y="291.9" width="11.97" height="11.97"/>
    <rect class="cls-1" x="303.87" y="291.9" width="11.97" height="11.97"/>
    <rect class="cls-1" x="315.84" y="291.9" width="11.97" height="11.97"/>
    <rect class="cls-1" x="327.81" y="291.9" width="11.97" height="11.97"/>
    <rect class="cls-1" x="339.78" y="291.9" width="11.97" height="11.97"/>
    <rect class="cls-1" x="363.72" y="291.9" width="11.97" height="11.97"/>
    <rect class="cls-1" x="196.13" y="303.87" width="11.97" height="11.97"/>
    <rect class="cls-1" x="220.07" y="303.87" width="11.97" height="11.97"/>
    <rect class="cls-1" x="255.99" y="303.87" width="11.97" height="11.97"/>
    <rect class="cls-1" x="291.9" y="303.87" width="11.97" height="11.97"/>
    <rect class="cls-1" x="339.78" y="303.87" width="11.97" height="11.97"/>
    <rect class="cls-1" x="351.75" y="303.87" width="11.97" height="11.97"/>
    <rect class="cls-1" x="208.1" y="315.84" width="11.97" height="11.97"/>
    <rect class="cls-1" x="232.04" y="315.84" width="11.97" height="11.97"/>
    <rect class="cls-1" x="244.01" y="315.84" width="11.97" height="11.97"/>
    <rect class="cls-1" x="255.99" y="315.84" width="11.97" height="11.97"/>
    <rect class="cls-1" x="267.96" y="315.84" width="11.97" height="11.97"/>
    <rect class="cls-1" x="291.9" y="315.84" width="11.97" height="11.97"/>
    <rect class="cls-1" x="315.84" y="315.84" width="11.97" height="11.97"/>
    <rect class="cls-1" x="339.78" y="315.84" width="11.97" height="11.97"/>
    <rect class="cls-1" x="363.72" y="315.84" width="11.97" height="11.97"/>
    <rect class="cls-1" x="375.69" y="315.84" width="11.97" height="11.97"/>
    <rect class="cls-1" x="387.66" y="315.84" width="11.97" height="11.97"/>
    <rect class="cls-1" x="196.13" y="327.81" width="11.97" height="11.97"/>
    <rect class="cls-1" x="208.1" y="327.81" width="11.97" height="11.97"/>
    <rect class="cls-1" x="220.07" y="327.81" width="11.97" height="11.97"/>
    <rect class="cls-1" x="232.04" y="327.81" width="11.97" height="11.97"/>
    <rect class="cls-1" x="267.96" y="327.81" width="11.97" height="11.97"/>
    <rect class="cls-1" x="291.9" y="327.81" width="11.97" height="11.97"/>
    <rect class="cls-1" x="339.78" y="327.81" width="11.97" height="11.97"/>
    <rect class="cls-1" x="351.75" y="327.81" width="11.97" height="11.97"/>
    <rect class="cls-1" x="196.13" y="339.78" width="11.97" height="11.97"/>
    <rect class="cls-1" x="208.1" y="339.78" width="11.97" height="11.97"/>
    <rect class="cls-1" x="232.04" y="339.78" width="11.97" height="11.97"/>
    <rect class="cls-1" x="279.93" y="339.78" width="11.97" height="11.97"/>
    <rect class="cls-1" x="291.9" y="339.78" width="11.97" height="11.97"/>
    <rect class="cls-1" x="303.87" y="339.78" width="11.97" height="11.97"/>
    <rect class="cls-1" x="315.84" y="339.78" width="11.97" height="11.97"/>
    <rect class="cls-1" x="327.81" y="339.78" width="11.97" height="11.97"/>
    <rect class="cls-1" x="339.78" y="339.78" width="11.97" height="11.97"/>
    <rect class="cls-1" x="363.72" y="339.78" width="11.97" height="11.97"/>
    <rect class="cls-1" x="375.69" y="339.78" width="11.97" height="11.97"/>
    <rect class="cls-1" x="387.66" y="339.78" width="11.97" height="11.97"/>
    <rect class="cls-1" x="196.13" y="351.75" width="11.97" height="11.97"/>
    <rect class="cls-1" x="220.07" y="351.75" width="11.97" height="11.97"/>
    <rect class="cls-1" x="244.01" y="351.75" width="11.97" height="11.97"/>
    <rect class="cls-1" x="255.99" y="351.75" width="11.97" height="11.97"/>
    <rect class="cls-1" x="303.87" y="351.75" width="11.97" height="11.97"/>
    <rect class="cls-1" x="315.84" y="351.75" width="11.97" height="11.97"/>
    <rect class="cls-1" x="339.78" y="351.75" width="11.97" height="11.97"/>
    <rect class="cls-1" x="351.75" y="351.75" width="11.97" height="11.97"/>
    <rect class="cls-1" x="363.72" y="351.75" width="11.97" height="11.97"/>
    <rect class="cls-1" x="375.69" y="351.75" width="11.97" height="11.97"/>
    <rect class="cls-1" x="387.66" y="351.75" width="11.97" height="11.97"/>
    <rect class="cls-1" x="196.13" y="363.72" width="11.97" height="11.97"/>
    <rect class="cls-1" x="255.99" y="363.72" width="11.97" height="11.97"/>
    <rect class="cls-1" x="267.96" y="363.72" width="11.97" height="11.97"/>
    <rect class="cls-1" x="279.93" y="363.72" width="11.97" height="11.97"/>
    <rect class="cls-1" x="351.75" y="363.72" width="11.97" height="11.97"/>
    <rect class="cls-1" x="363.72" y="363.72" width="11.97" height="11.97"/>
    <rect class="cls-1" x="387.66" y="363.72" width="11.97" height="11.97"/>
    <rect class="cls-1" x="208.1" y="375.69" width="11.97" height="11.97"/>
    <rect class="cls-1" x="244.01" y="375.69" width="11.97" height="11.97"/>
    <rect class="cls-1" x="255.99" y="375.69" width="11.97" height="11.97"/>
    <rect class="cls-1" x="279.93" y="375.69" width="11.97" height="11.97"/>
    <rect class="cls-1" x="291.9" y="375.69" width="11.97" height="11.97"/>
    <rect class="cls-1" x="315.84" y="375.69" width="11.97" height="11.97"/>
    <rect class="cls-1" x="327.81" y="375.69" width="11.97" height="11.97"/>
    <rect class="cls-1" x="339.78" y="375.69" width="11.97" height="11.97"/>
    <rect class="cls-1" x="351.75" y="375.69" width="11.97" height="11.97"/>
    <rect class="cls-1" x="387.66" y="375.69" width="11.97" height="11.97"/>
    <rect class="cls-1" x="196.13" y="387.66" width="11.97" height="11.97"/>
    <rect class="cls-1" x="244.01" y="387.66" width="11.97" height="11.97"/>
    <rect class="cls-1" x="267.96" y="387.66" width="11.97" height="11.97"/>
    <rect class="cls-1" x="303.87" y="387.66" width="11.97" height="11.97"/>
    <rect class="cls-1" x="327.81" y="387.66" width="11.97" height="11.97"/>
    <rect class="cls-1" x="339.78" y="387.66" width="11.97" height="11.97"/>
    <rect class="cls-1" x="351.75" y="387.66" width="11.97" height="11.97"/>
    <rect class="cls-1" x="363.72" y="387.66" width="11.97" height="11.97"/>
    <rect class="cls-1" x="375.69" y="387.66" width="11.97" height="11.97"/>
    <rect class="cls-1" x="387.66" y="387.66" width="11.97" height="11.97"/>
    <path class="cls-1" d="m171.59,100.37h-71.22v83.79h83.79v-83.79h-12.57Zm0,71.22h-58.65v-58.65h58.65v58.65Zm0,0"/>
    <path class="cls-1" d="m387.06,100.37h-71.22v83.79h83.79v-83.79h-12.57Zm0,71.22h-58.65v-58.65h58.65v58.65Zm0,0"/>
    <path class="cls-1" d="m171.59,315.84h-71.22v83.79h83.79v-83.79h-12.57Zm0,71.22h-58.65v-58.65h58.65v58.65Zm0,0"/>
    <rect class="cls-1" x="124.31" y="124.31" width="35.91" height="35.91"/>
    <rect class="cls-1" x="339.78" y="124.31" width="35.91" height="35.91"/>
    <rect class="cls-1" x="124.31" y="339.78" width="35.91" height="35.91"/>
  </g>
</svg>