<?xml version="1.0" encoding="UTF-8"?>
<svg xmlns="http://www.w3.org/2000/svg" viewBox="0 0 480 122" fill="#5d94da">
  <path d="M150.872917,14.2877677 C137.229605,14.2877677 126.135044,25.6821685 126.135044,39.7248948 C126.135044,53.7676219 137.229605,65.1431732 150.872917,65.1431732 C161.021068,65.1431732 170.04477,58.8663569 173.821043,49.158968 L174.20523,48.1882298 L159.999693,48.1882298 C158.884615,49.4417076 157.600869,50.7705835 156.129715,51.7978703 C154.658561,52.8157324 153.01874,53.5225805 151.257104,53.5225805 C146.496938,53.5225805 141.418177,50.0071868 140.668544,44.060233 L175.217234,44.060233 L175.301567,43.4476308 C175.507716,42.0433585 175.60142,40.8558532 175.60142,39.7248948 C175.60142,25.6915924 164.506859,14.2877677 150.872917,14.2877677 L150.872917,14.2877677 Z M140.012616,34.8994746 C140.012616,29.2823843 144.763412,24.730279 150.619917,24.730279 C156.476421,24.730279 161.227216,29.2823843 161.227216,34.8994746 L140.003246,34.8994746 L140.012616,34.8994746 Z M0,9.69796327 L41.201678,9.69796327 L41.201678,0 L0,0 L0,9.69796327 L0,9.69796327 Z M0,23.5616224 L41.201678,23.5616224 L41.201678,13.8636583 L0,13.8636583 L0,23.5616224 Z M0,51.2795141 L41.201678,51.2795141 L41.201678,41.5815509 L0,41.5815509 L0,51.2795141 Z M0,65.1431732 L41.201678,65.1431732 L41.201678,55.4452091 L0,55.4452091 L0,65.1431732 Z M195.016903,49.7432967 L195.016903,28.3022205 L204.228013,28.3022205 L204.228013,18.1989973 L195.016903,18.1989973 L195.016903,4.16569498 L181.476665,4.16569498 L181.476665,18.1989973 L174.495712,18.1989973 L174.495712,28.3022205 L181.476665,28.3022205 L181.476665,51.1287204 C181.523518,60.7795607 185.843275,65.1054742 195.073125,65.1525971 L195.223052,65.1525971 L196.375612,65.1243237 L204.555977,64.9169814 L204.555977,54.8043335 L198.661991,54.8043335 C196.516168,54.3613746 195.194941,52.9288279 195.016903,49.7527215 L195.016903,49.7432967 Z M0,37.4252806 L41.201678,37.4252806 L41.201678,27.7273165 L0,27.7273165 L0,37.4252806 Z M86.3295564,41.8642904 L73.4077659,0.00942476629 L50.159787,0.00942476629 L50.159787,65.1525971 L64.5152494,65.1525971 L64.5152494,13.2227826 L80.2294215,65.1525971 L92.5515068,65.1525971 L107.900232,14.0333024 L107.900232,65.1525971 L122.255696,65.1525971 L122.255696,0.00942476629 L99.2326059,0.00942476629 L86.3108154,41.8642904 L86.3295564,41.8642904 Z M238.598664,17.4261758 C229.321961,16.446012 224.9085,20.3006939 222.106749,25.4465519 L222.106749,18.2084213 L208.566511,18.2084213 L208.566511,65.1620219 L222.106749,65.1620219 L222.106749,42.5617138 C222.106749,34.352845 228.272476,28.32107 238.598664,30.5264373 L238.598664,17.4450254 L238.598664,17.4261758 Z M429.426996,17.5769704 C420.290849,15.8145611 414.912235,20.2724196 412.091743,25.88951 L412.091743,18.1989973 L403.199227,18.1989973 L403.199227,65.1525971 L412.091743,65.1525971 L412.091743,38.8389778 C413.309896,31.1673138 418.182507,24.5983331 429.426996,26.0968523 L429.426996,17.5769704 Z M377.89913,16.4742863 C371.021251,16.4742863 365.277191,19.7352147 361.960067,25.0978398 L361.960067,0.00942476629 L353.067552,0.00942476629 L353.067552,65.1525971 L361.960067,65.1525971 L361.960067,57.5657552 C365.164747,62.7775857 371.030622,66.132761 378.002204,66.132761 C390.13688,66.132761 399.094989,56.2557288 399.094989,41.355359 C399.094989,26.4549892 390.239955,16.4742863 377.89913,16.4742863 Z M375.191082,58.4893705 C365.811305,58.4893705 362.372366,51.6941988 362.372366,41.6852216 L362.372366,40.2809492 C362.372366,30.9505467 366.17675,24.6643056 375.397231,24.6643056 C384.617711,24.6643056 389.246692,30.9976697 389.246692,41.308236 C389.246692,51.6188015 384.936305,58.4893705 375.191082,58.4893705 L375.191082,58.4893705 Z M451.278784,14.3254659 C438.319512,14.3254659 427.768433,25.7198667 427.768433,39.7343196 C427.768433,53.7487724 438.319512,65.1525971 451.278784,65.1525971 C460.761635,65.1525971 468.92326,59.0454249 472.643311,50.2805016 C472.896312,49.6961737 473.121202,49.0929955 473.327351,48.4803933 L463.1792,48.4803933 L463.1792,48.4992428 L463.16046,48.4992428 C460.86471,53.8335944 457.041584,56.3688252 451.297525,56.2463041 C443.857421,56.0955104 438.928588,50.9873506 438.263289,42.8821525 L474.601726,42.8821525 C474.648578,42.4014953 474.686059,41.930263 474.723541,41.4496058 C474.751652,40.8841266 474.798504,40.3186474 474.798504,39.7343196 C474.798504,25.7292915 464.247427,14.3254659 451.288154,14.3254659 L451.278784,14.3254659 Z M438.103992,35.6063236 C438.103992,28.0194809 443.997978,21.8840343 451.278784,21.8840343 C458.55959,21.8840343 464.453575,28.0194809 464.453575,35.6063236 L438.113362,35.6063236 L438.103992,35.6063236 Z M337.981197,8.75549851 L347.698309,8.75549851 L347.698309,0.00942476629 L337.981197,0.00942476629 L337.981197,8.75549851 Z M263.242834,17.1245867 C248.128368,17.1245867 238.589294,27.1712629 238.589294,41.5438518 C238.589294,55.9164415 248.128368,65.953693 263.299056,65.953693 C278.469744,65.953693 287.952596,55.9729892 287.952596,41.5438518 C287.952596,27.1147143 278.460374,17.1245867 263.242834,17.1245867 Z M263.261574,54.342525 C257.779886,54.342525 253.310203,48.5934896 253.310203,41.5438518 C253.310203,34.4942148 257.779886,28.7451794 263.261574,28.7451794 C268.743262,28.7451794 273.212946,34.48479 273.212946,41.5438518 C273.212946,48.6029144 268.752633,54.342525 263.261574,54.342525 Z M292.019352,65.1620219 L301.914502,65.1620219 L301.914502,35.7948164 L333.483402,35.7948164 L333.483402,27.0487418 L301.914502,27.0487418 L301.914502,8.76492328 L333.483402,8.76492328 L333.483402,0.0188495326 L292.019352,0.0188495326 L292.019352,65.1620219 Z M337.990568,65.1620219 L347.70768,65.1620219 L347.70768,17.4827236 L337.990568,17.4827236 L337.990568,65.1620219 Z M303.872779,84.6521108 L303.872779,84.7060383 L318.594987,103.203171 L318.594987,84.6521108 L329.056922,84.6521108 L329.056922,122.401362 L318.594987,122.401362 L318.594987,122.347435 L303.872779,103.958157 L303.872779,122.401362 L293.410843,122.401362 L293.410843,84.6521108 L303.872779,84.6521108 Z M366.374753,84.6521108 L366.374753,93.4962212 L346.205868,93.4962212 L346.205868,99.1046814 L357.314933,99.1046814 L357.314933,107.948792 L346.205868,107.948792 L346.205868,113.557252 L366.374753,113.557252 L366.374753,122.401362 L335.743932,122.401362 L335.743932,84.6521108 L366.374753,84.6521108 Z M382.660859,84.6521108 L388.269319,94.4669162 L393.931707,84.6521108 L406.766452,84.6521108 L395.17204,103.041389 L407.305727,122.401362 L394.201344,122.401362 L388.053609,111.831572 L381.851947,122.401362 L369.017201,122.401362 L381.150889,103.257099 L369.556476,84.6521108 L382.660859,84.6521108 Z M445.378544,84.7060383 L445.378544,105.414199 C445.378544,107.822961 444.92016,110.096904 444.003392,112.236028 C443.086625,114.375152 441.828317,116.244639 440.228467,117.844488 C438.628618,119.444337 436.768119,120.702646 434.646971,121.619413 C432.525822,122.536181 430.260867,122.994565 427.852106,122.994565 C425.443344,122.994565 423.169401,122.536181 421.030277,121.619413 C418.891152,120.702646 417.021666,119.444337 415.421816,117.844488 C413.821967,116.244639 412.563659,114.375152 411.646891,112.236028 C410.730124,110.096904 410.27174,107.822961 410.27174,105.414199 L410.27174,84.7060383 L420.733675,84.7060383 L420.733675,105.414199 C420.733675,106.384894 420.913434,107.301662 421.27295,108.164502 C421.632467,109.027342 422.126803,109.782327 422.755957,110.429457 C423.385111,111.076587 424.12212,111.588898 424.966984,111.966391 C425.811849,112.343883 426.719628,112.532629 427.690323,112.532629 L427.852106,112.532629 C428.822801,112.532629 429.739568,112.343883 430.602408,111.966391 C431.465248,111.588898 432.211245,111.076587 432.8404,110.429457 C433.469554,109.782327 433.972877,109.027342 434.35037,108.164502 C434.727862,107.301662 434.916608,106.384894 434.916608,105.414199 L434.916608,84.7060383 L445.378544,84.7060383 Z M466.19456,84.0589083 C468.639273,84.0589083 471.092974,84.5172921 473.555664,85.4340596 C476.018353,86.3508272 478.166465,87.6360993 480,89.289876 L472.66586,96.7857988 C471.910875,95.9229587 470.931192,95.1949375 469.726811,94.6017349 C468.52243,94.0085324 467.345013,93.7119312 466.19456,93.7119312 C465.835043,93.7119312 465.45755,93.7388949 465.062082,93.7928224 C464.666614,93.8467499 464.298109,93.945617 463.956568,94.0894237 C463.615027,94.2332303 463.336402,94.4399524 463.120692,94.7095899 C462.904982,94.9792275 462.797127,95.3297562 462.797127,95.7611762 C462.797127,96.0847412 462.887006,96.3903304 463.066764,96.6779438 C463.318426,97.0734121 463.767822,97.405965 464.414952,97.6756026 C465.062082,97.9452401 465.826055,98.2148776 466.706871,98.4845151 C467.587687,98.7541526 468.558382,99.0597418 469.618956,99.4012826 C470.67953,99.7428235 471.722128,100.165256 472.746751,100.668579 C473.771374,101.171902 474.742069,101.792069 475.658836,102.529078 C476.575604,103.266087 477.339577,104.173867 477.950755,105.252417 C478.741692,106.474773 479.13716,108.038671 479.13716,109.944109 C479.13716,112.029306 478.723716,113.880817 477.896827,115.498642 C477.069939,117.116467 475.964425,118.48263 474.580286,119.597132 C473.196147,120.711634 471.596298,121.556498 469.780738,122.131725 C467.965179,122.706951 466.050753,122.994565 464.037459,122.994565 C461.269181,122.994565 458.563818,122.545169 455.92137,121.646377 C453.278923,120.747585 450.879149,119.417374 448.722049,117.655742 L455.948334,109.782327 C456.990933,110.824925 458.213289,111.669789 459.615404,112.316919 C461.017519,112.964049 462.473562,113.287614 463.983532,113.287614 C464.702565,113.287614 465.403623,113.143808 466.086705,112.856194 C466.769786,112.568581 467.111327,112.01133 467.111327,111.184442 C467.111327,110.393505 466.706871,109.773339 465.897958,109.323943 C465.089046,108.874547 464.082399,108.443127 462.878018,108.029683 C461.673637,107.616239 460.370389,107.175831 458.968274,106.708459 C457.566159,106.241087 456.262911,105.593957 455.05853,104.767069 C453.854149,103.940181 452.847503,102.870619 452.03859,101.558383 C451.229678,100.246147 450.825221,98.5833822 450.825221,96.5700888 C450.825221,94.4129887 451.265629,92.543502 452.146445,90.9616286 C453.027261,89.3797552 454.186702,88.0765072 455.624769,87.0518847 C457.062836,86.0272621 458.698637,85.2722771 460.532172,84.7869296 C462.365707,84.3015821 464.253169,84.0589083 466.19456,84.0589083 Z" fill-rule="nonzero"></path>
</svg>
