<?xml version="1.0" encoding="UTF-8"?>
<svg xmlns="http://www.w3.org/2000/svg" width="102" height="60">
  <defs>
    <clipPath id="a">
      <path transform="translate(-4673 7909)" fill="#fff" d="M0 0h102v60H0z"></path>
    </clipPath>
  </defs>
  <g transform="translate(4673 -7909)" clip-path="url(#a)">
    <path d="M-4623.03 7925.82l-2.23 1.45a23.7 23.7 0 11-8.36-8.36l1.45-2.23a26.33 26.33 0 109.14 9.14" fill="#5d94da"></path>
    <path d="M-4655.98 7939.34c0 2.54-.91 4.71-4.31 4.71-3.36 0-4.33-2.17-4.33-4.72 0-3.49 1.82-4.73 4.33-4.73 2.53 0 4.31 1.24 4.31 4.73m-2 0c0-1.67-.43-2.72-2.3-2.72-1.86 0-2.33 1.05-2.33 2.73 0 2.08.8 2.7 2.32 2.7 1.54 0 2.3-.62 2.3-2.7m3.72-3.83a10.06 10.06 0 013.59-.91c2.52 0 4.38 1.24 4.38 4.73 0 2.55-1 4.72-4.38 4.72a7.26 7.26 0 01-1.6-.18v3.47l-1.99.33zm6 3.82c0-1.8-.63-2.76-2.41-2.76a3.97 3.97 0 00-1.58.3v5.07a7.73 7.73 0 001.58.14c1.76 0 2.41-1.04 2.41-2.74m5.56.8a2.2 2.2 0 002.43 1.98 11.45 11.45 0 003.03-.55v1.89a9.11 9.11 0 01-3.21.58c-3.37 0-4.4-2.23-4.4-4.7 0-3.33 1.82-4.74 4.32-4.74s4.31 1.37 4.31 4.74a6.76 6.76 0 01-.03.8zm.04-1.82h4.36a1.95 1.95 0 00-2.22-1.72 1.85 1.85 0 00-2.14 1.72m10.12 5.66h-2v-8.47a9.73 9.73 0 013.58-.9c2.54 0 4.25 1.24 4.25 4.73v4.64h-2v-4.64c0-1.7-.49-2.8-2.25-2.8a5.4 5.4 0 00-1.58.27z" fill="#5d94da"></path>
    <path d="M-4625.79 7926.42a23.85 23.85 0 00-6.98-6.98l1.45-2.23a26.51 26.51 0 017.76 7.76z" fill="#5d94da"></path>
    <path d="M-4612.32 7934.61a14.3 14.3 0 012.84.36v1.91a17.29 17.29 0 00-2.73-.32c-.87 0-1.6.2-1.6.91 0 1.68 5.11-.31 5.11 3.76 0 2.08-1.69 2.84-3.51 2.84a13.23 13.23 0 01-3.5-.52v-1.9a16.56 16.56 0 003.13.46c.98 0 1.85-.04 1.85-.89 0-1.97-5.07.33-5.07-3.73 0-2.3 1.66-2.88 3.48-2.88m7.17 5.51a2.2 2.2 0 002.44 2 11.44 11.44 0 003.02-.57v1.9a9.12 9.12 0 01-3.21.57c-3.36 0-4.4-2.22-4.4-4.7 0-3.32 1.82-4.73 4.33-4.73s4.3 1.37 4.3 4.73a6.74 6.74 0 01-.03.8zm.04-1.82h4.37a1.95 1.95 0 00-2.23-1.7 1.85 1.85 0 00-2.13 1.7m10.1 5.67h-2v-8.52a8.74 8.74 0 013.59-.78 11.3 11.3 0 011.47.07v1.88a10.62 10.62 0 00-1.25-.11 4.55 4.55 0 00-1.8.31zm4.2-9.29h2.33l2.43 6.11 2.46-6.1h2.32l-3.82 9.28h-1.93zm12.36 5.44a2.2 2.2 0 002.44 2 11.44 11.44 0 003.02-.57v1.9a9.12 9.12 0 01-3.21.57c-3.36 0-4.4-2.22-4.4-4.7 0-3.32 1.82-4.73 4.33-4.73s4.3 1.37 4.3 4.73a6.7 6.7 0 01-.03.8zm.04-1.82h4.37a1.95 1.95 0 00-2.23-1.7 1.85 1.85 0 00-2.13 1.7" fill="#5d94da"></path>
  </g>
</svg>
