<?xml version="1.0" encoding="UTF-8"?>
<svg xmlns="http://www.w3.org/2000/svg" viewBox="0 0 500 85" fill="#5d94da">
  <path d="M440,0 C449.37,0 456.64,4.25 461.35,12.67 C473.843333,34.9433333 486.35,57.22 498.87,79.5 C500.861698,83.0418868 500.331331,84.0905874 496.476111,84.1572338 L496.25,84.16 L488.37,84.16 C487.88797,84.1098055 487.40203,84.1098055 486.92,84.16 C480.13,85.53 475.77,82.95 473.42,76.38 C472.4,73.5 470.41,70.96 469,68.22 C468.447618,66.9715871 467.145675,66.2293577 465.79,66.39 C448.51,66.43 431.233333,66.43 413.96,66.39 C412.505595,66.2267465 411.117412,67.0409301 410.55,68.39 C408.22,72.84 405.59,77.15 403.22,81.59 C402.525002,83.3286543 400.763028,84.397259 398.9,84.21 C393.76,84.03 388.61,84.15 383.46,84.15 C379.32,84.15 378.73,83.14 380.73,79.54 C390.63,61.9133333 400.54,44.2833333 410.46,26.65 C413.15,21.92 415.78,17.18 418.46,12.48 C423.19,4.13 430.63,0 440,0 Z M27.35,10.66 C35.93,27.03 45.28,43 54.35,59.12 C54.68,59.71 55.01,60.31 55.35,60.89 C57.69,64.68 60.92,64.64 63.13,60.72 C70.0166667,48.5133333 76.89,36.29 83.75,24.05 C87.45,17.46 91.21,10.92 94.75,4.27 C95.5186555,2.46164555 97.3888259,1.37784305 99.34,1.61 C104.68,1.76 110.02,1.61 115.34,1.67 C118.27,1.67 119.06,2.97 117.64,5.51 C105.21,27.8 92.92,50.2 80.1,72.3 C70.65,88.58 47.15,88.08 37.86,71.68 C25.5,49.86 13.2133333,28.0066667 1,6.12 C-0.87,2.79 -0.19,1.68 3.73,1.66 C6.35,1.65 9,1.66 11.59,1.66 C20.03,-0.82 23.76,3.84 27.35,10.66 Z M265.5,1.71 C269.44,1.89 272.05,4.04 273.96,7.45 C283.56,24.71 293.226667,41.9366667 302.96,59.13 C303.2,59.55 303.43,59.98 303.65,60.41 C304.53,62.12 305.65,63.61 307.78,63.63 C309.91,63.65 311,62.19 312,60.48 C316,53.28 320,46.12 324.07,38.94 C330,28.39 335.92,17.86 341.77,7.27 C343.551993,3.58647526 347.398345,1.36026522 351.48,1.65 C353.81,1.7 356.14,1.65 358.48,1.65 C363.8,1.74 367.63,5.28 367.65,10.53 C367.72,34.08 367.65,57.63 367.65,81.18 C367.65,83.25 366.84,84.18 364.7,84.18 C359.94,84.11 355.18,84.03 350.43,84.18 C347.55,84.28 346.71,83.05 346.73,80.38 C346.8,68.66 346.73,56.93 346.73,45.2 L346.73,42.07 L346.06,41.82 C344.88,43.89 343.69,45.95 342.52,48.02 C338.11,55.87 333.66,63.7 329.3,71.57 C324.62,80.02 317.3,84.08 307.83,84.08 C298.36,84.08 291.06,80 286.37,71.55 C281.37,62.49 276.23,53.48 271.14,44.46 C270.760671,43.4542924 270.138947,42.5577736 269.33,41.85 C268.23,42.67 268.74,43.85 268.74,44.79 C268.74,56.71 268.64,68.63 268.74,80.55 C268.74,83.37 267.85,84.32 265.04,84.2 C260.49,84.01 255.92,84.07 251.35,84.2 C249.02,84.26 248.06,83.52 248.06,81.05 C248.13,57.5 248.06,33.94 248.12,10.39 C248.058488,5.68743808 251.798183,1.81386413 256.5,1.71 C259.5,1.57 262.5,1.57 265.5,1.71 Z M147.48,1.71 C151.242453,1.71 151.467768,1.82111428 151.479415,5.43809359 L151.48,52.39 C151.48,59.91 154.97,63.39 162.54,63.39 L198.66,63.39 C205.25,63.39 208.83,59.84 208.85,53.1 L208.85,6 C208.85,1.82 208.93,1.74 213.05,1.74 C217.51,1.74 221.98,1.82 226.44,1.74 C228.84,1.68 229.7,2.61 229.68034,5 C229.61,13.61 229.67,22.33 229.67,31.05 L229.67,54.05 C229.70204,62.0463651 226.540356,69.7246156 220.886966,75.3798837 C215.233575,81.0351517 207.556375,84.2 199.56,84.17 C186.74,84.21 173.923333,84.21 161.11,84.17 C153.059812,84.2918461 145.301756,81.1566265 139.596536,75.4758838 C133.891315,69.7951411 130.722768,62.0506379 130.81,54 C130.76,37.82 130.81,21.63 130.81,5.45 C130.81,1.95 131.06,1.72 134.66,1.71 L147.48,1.71 Z M435.69,23.62 C431.043333,31.8733333 426.403333,40.1433333 421.77,48.43 C421.471333,48.9526667 420.989733,49.4404889 421.154498,50.1698993 L421.2,50.33 L458.93,50.36 C453.76,41.15 448.88,32.37 443.93,23.62 C441.47,19.23 438.16,19.24 435.69,23.62 Z" id="Combined-Shape"></path>
</svg>
